<?xml version="1.0" standalone="no"?>
<!DOCTYPE svg PUBLIC "-//W3C//DTD SVG 20010904//EN"
 "http://www.w3.org/TR/2001/REC-SVG-20010904/DTD/svg10.dtd">
<svg version="1.0" xmlns="http://www.w3.org/2000/svg"
 width="512.000000pt" height="512.000000pt" viewBox="0 0 512.000000 512.000000"
 preserveAspectRatio="xMidYMid meet">

<g transform="translate(0.000000,512.000000) scale(0.100000,-0.100000)"
fill="#000000" stroke="none">
<path d="M2420 4224 c-340 -39 -606 -140 -850 -323 -355 -264 -574 -627 -652
-1076 -27 -158 -21 -435 12 -589 121 -563 506 -1019 1029 -1221 71 -27 103
-35 128 -30 54 10 63 40 63 216 l0 151 -22 -6 c-53 -15 -180 -18 -238 -7 -151
30 -232 97 -317 265 -56 109 -90 151 -188 231 -56 47 -56 70 -1 80 88 17 209
-57 283 -172 101 -158 245 -212 420 -159 l62 19 10 49 c12 55 32 98 68 145 28
36 27 37 -67 48 -83 11 -213 51 -298 93 -101 49 -213 158 -264 257 -61 117
-89 230 -95 385 -5 107 -2 151 11 209 21 90 70 199 119 263 32 42 35 51 26 75
-31 82 -27 248 8 359 l17 56 66 -4 c82 -7 199 -51 309 -119 l83 -51 106 23
c93 21 133 24 312 24 179 0 219 -3 312 -24 l106 -23 83 51 c110 68 227 112
309 119 l66 4 17 -56 c35 -111 39 -277 8 -359 -9 -24 -6 -33 26 -75 49 -64 98
-173 119 -263 25 -109 15 -312 -21 -434 -75 -255 -226 -403 -487 -479 -45 -13
-108 -27 -138 -31 -96 -12 -95 -11 -60 -58 64 -87 73 -139 78 -470 l4 -297 25
-20 c35 -27 49 -26 156 16 521 201 906 658 1027 1220 33 154 39 431 12 589
-78 449 -297 812 -652 1076 -208 156 -445 257 -715 305 -79 14 -347 26 -415
18z"/>
</g>
</svg>
